<?xml version="1.0" standalone="no"?>
<!DOCTYPE svg PUBLIC "-//W3C//DTD SVG 20010904//EN"
 "http://www.w3.org/TR/2001/REC-SVG-20010904/DTD/svg10.dtd">
<svg version="1.0" xmlns="http://www.w3.org/2000/svg"
 width="64.000000pt" height="64.000000pt" viewBox="0 0 64.000000 64.000000"
 preserveAspectRatio="xMidYMid meet">

<g transform="translate(0.000000,64.000000) scale(0.100000,-0.100000)"
fill="#000000" stroke="none">
<path d="M171 561 c-88 -15 -110 -84 -98 -302 9 -178 17 -184 247 -184 244 0
245 1 245 245 0 237 -4 241 -215 246 -74 1 -155 -1 -179 -5z m99 -156 l0 -55
50 0 50 0 0 55 c0 52 1 55 25 55 l25 0 0 -140 0 -140 -25 0 c-24 0 -25 3 -25
60 l0 60 -50 0 -50 0 0 -60 c0 -57 -1 -60 -25 -60 l-25 0 0 140 0 140 25 0
c24 0 25 -3 25 -55z"/>
</g>
</svg>
