<?xml version="1.0" standalone="no"?>
<!DOCTYPE svg PUBLIC "-//W3C//DTD SVG 20010904//EN"
 "http://www.w3.org/TR/2001/REC-SVG-20010904/DTD/svg10.dtd">
<svg version="1.0" xmlns="http://www.w3.org/2000/svg"
 width="200.000000pt" height="200.000000pt" viewBox="0 0 200.000000 200.000000"
 preserveAspectRatio="xMidYMid meet">

<g transform="translate(0.000000,200.000000) scale(0.100000,-0.100000)"
fill="#000000" stroke="none">
<path d="M851 1909 c-29 -5 -95 -23 -145 -40 -303 -101 -520 -339 -602 -659
-27 -104 -27 -315 0 -420 88 -346 340 -598 686 -686 105 -27 316 -27 420 0
336 86 576 317 676 651 24 79 27 108 28 235 1 112 -3 162 -18 220 -87 341
-332 590 -671 682 -82 22 -292 32 -374 17z m-129 -429 c38 -38 40 -43 35 -86
-3 -34 -13 -55 -35 -76 -21 -22 -42 -32 -76 -35 -43 -5 -48 -3 -87 36 -39 39
-41 44 -36 87 7 70 54 112 126 113 26 1 42 -8 73 -39z m26 -252 c17 -17 17
-639 0 -656 -16 -16 -200 -16 -216 0 -17 17 -17 639 0 656 16 16 200 16 216 0z
m324 -7 c11 -18 14 -18 42 -4 17 9 57 18 91 20 125 10 249 -71 294 -190 19
-52 21 -78 21 -260 0 -145 -3 -206 -12 -215 -16 -16 -200 -16 -216 0 -8 8 -12
63 -12 180 0 182 -6 210 -51 234 -34 17 -60 18 -94 2 -48 -22 -55 -52 -55
-236 0 -117 -4 -172 -12 -180 -16 -16 -200 -16 -216 0 -17 17 -17 639 0 656 8
8 47 12 110 12 86 0 99 -2 110 -19z"/>
</g>
</svg>
