<?xml version="1.0" standalone="no"?>
<!DOCTYPE svg PUBLIC "-//W3C//DTD SVG 20010904//EN"
 "http://www.w3.org/TR/2001/REC-SVG-20010904/DTD/svg10.dtd">
<svg version="1.0" xmlns="http://www.w3.org/2000/svg"
 width="240.000000pt" height="240.000000pt" viewBox="0 0 240.000000 240.000000"
 preserveAspectRatio="xMidYMid meet">

<g transform="translate(0.000000,240.000000) scale(0.100000,-0.100000)"
fill="#000000" stroke="none">
<path d="M1033 2145 c-201 -36 -383 -134 -524 -283 -186 -193 -279 -443 -266
-707 18 -360 223 -665 549 -820 95 -45 246 -89 261 -76 4 4 6 160 5 347 l-3
339 -117 3 -118 3 0 124 0 125 120 0 120 0 0 133 c0 189 29 280 111 351 74 63
133 79 291 78 76 0 142 -4 148 -7 6 -4 10 -53 10 -116 l0 -109 -95 0 c-52 0
-106 -5 -120 -12 -48 -22 -69 -79 -73 -205 l-4 -113 146 0 146 0 -5 -22 c-5
-23 -35 -213 -35 -223 0 -3 -56 -5 -125 -5 l-125 0 0 -350 c0 -192 3 -350 8
-350 39 0 195 50 270 85 268 127 455 358 529 651 26 103 23 343 -5 445 -102
376 -397 649 -769 714 -102 18 -232 18 -330 0z"/>
</g>
</svg>
