<?xml version="1.0" standalone="no"?>
<!DOCTYPE svg PUBLIC "-//W3C//DTD SVG 20010904//EN"
 "http://www.w3.org/TR/2001/REC-SVG-20010904/DTD/svg10.dtd">
<svg version="1.0" xmlns="http://www.w3.org/2000/svg"
 width="200.000000pt" height="200.000000pt" viewBox="0 0 200.000000 200.000000"
 preserveAspectRatio="xMidYMid meet">

<g transform="translate(0.000000,200.000000) scale(0.100000,-0.100000)"
fill="#000000" stroke="none">
<path d="M775 1746 c-37 -17 -70 -52 -84 -89 -7 -19 -11 -187 -11 -490 l0
-461 -122 121 c-132 130 -156 143 -235 128 -49 -9 -109 -69 -118 -118 -17 -89
-16 -90 283 -388 368 -368 371 -369 718 -369 266 0 307 11 405 109 58 58 70
76 88 135 19 63 21 91 21 367 0 329 -2 344 -59 392 -39 33 -93 43 -146 29 -39
-10 -41 -10 -69 25 -50 60 -121 78 -193 48 -34 -15 -36 -14 -69 15 -40 34 -94
47 -146 33 l-37 -10 -3 218 c-3 238 -5 243 -70 292 -34 25 -113 32 -153 13z
m116 -85 l24 -19 5 -333 c5 -302 7 -333 23 -343 34 -22 52 4 57 83 4 61 9 76
29 92 30 24 72 24 102 0 20 -16 25 -31 29 -92 4 -54 9 -75 23 -83 30 -19 51 5
57 64 4 39 12 57 29 71 30 24 72 24 102 0 21 -17 25 -30 29 -112 4 -73 9 -94
23 -103 30 -19 51 5 57 64 4 39 12 57 29 71 33 27 77 24 107 -6 l25 -25 -3
-313 c-3 -306 -3 -313 -27 -357 -32 -61 -67 -97 -126 -128 -48 -26 -56 -27
-245 -30 -349 -6 -348 -7 -697 342 -238 236 -263 264 -263 294 0 44 38 82 81
82 29 0 52 -19 189 -155 86 -85 163 -155 171 -155 38 0 39 8 39 542 l0 519 25
24 c29 30 74 32 106 6z"/>
</g>
</svg>
